<mxfile>
    <diagram id="LNP9S4-BVpzVc-00VTwb" name="Page-1">
        <mxGraphModel dx="1275" dy="878" grid="1" gridSize="10" guides="1" tooltips="1" connect="1" arrows="1" fold="1" page="1" pageScale="1" pageWidth="850" pageHeight="1100" math="0" shadow="0">
            <root>
                <mxCell id="0"/>
                <mxCell id="1" parent="0"/>
                <mxCell id="73" value="&lt;font style=&quot;font-size: 48px&quot;&gt;2009&lt;/font&gt;" style="shape=ext;double=1;rounded=0;whiteSpace=wrap;html=1;shadow=0;sketch=0;fillColor=#f5f5f5;strokeColor=#666666;fontColor=#333333;" parent="1" vertex="1">
                    <mxGeometry x="440" width="400" height="100" as="geometry"/>
                </mxCell>
                <mxCell id="74" value="&lt;font style=&quot;font-size: 24px&quot;&gt;Node.js&lt;/font&gt;" style="html=1;whiteSpace=wrap;shape=isoCube2;backgroundOutline=1;isoAngle=15;shadow=0;sketch=0;fillColor=#f5f5f5;strokeColor=#666666;fontColor=#333333;" parent="1" vertex="1">
                    <mxGeometry x="440" y="120" width="120" height="140" as="geometry"/>
                </mxCell>
                <mxCell id="80" value="&lt;font style=&quot;font-size: 48px&quot;&gt;2006&lt;/font&gt;" style="shape=ext;double=1;rounded=0;whiteSpace=wrap;html=1;shadow=0;sketch=0;fillColor=#f5f5f5;strokeColor=#666666;fontColor=#333333;" parent="1" vertex="1">
                    <mxGeometry width="400" height="100" as="geometry"/>
                </mxCell>
                <mxCell id="85" value="&lt;font style=&quot;font-size: 24px&quot;&gt;jQuery&lt;/font&gt;" style="html=1;whiteSpace=wrap;shape=isoCube2;backgroundOutline=1;isoAngle=15;shadow=0;sketch=0;fillColor=#f5f5f5;strokeColor=#666666;fontColor=#333333;" parent="1" vertex="1">
                    <mxGeometry y="120" width="120" height="140" as="geometry"/>
                </mxCell>
                <mxCell id="89" value="&lt;font style=&quot;font-size: 18px&quot;&gt;Isomorphic&lt;/font&gt;" style="ellipse;shape=cloud;whiteSpace=wrap;html=1;shadow=0;sketch=0;fillColor=#f5f5f5;align=center;strokeColor=#666666;fontColor=#333333;" parent="1" vertex="1">
                    <mxGeometry x="520" y="210" width="130" height="60" as="geometry"/>
                </mxCell>
                <mxCell id="90" value="&lt;font style=&quot;font-size: 48px&quot;&gt;2010&lt;/font&gt;" style="shape=ext;double=1;rounded=0;whiteSpace=wrap;html=1;shadow=0;sketch=0;fillColor=#f5f5f5;strokeColor=#666666;fontColor=#333333;" parent="1" vertex="1">
                    <mxGeometry y="315" width="400" height="100" as="geometry"/>
                </mxCell>
                <mxCell id="91" value="&lt;font style=&quot;font-size: 24px&quot;&gt;AngularJS&lt;/font&gt;" style="html=1;whiteSpace=wrap;shape=isoCube2;backgroundOutline=1;isoAngle=15;shadow=0;sketch=0;fillColor=#f5f5f5;strokeColor=#666666;fontColor=#333333;" parent="1" vertex="1">
                    <mxGeometry y="430" width="120" height="140" as="geometry"/>
                </mxCell>
                <mxCell id="92" value="&lt;font style=&quot;font-size: 24px&quot;&gt;Backbone.js&lt;/font&gt;" style="html=1;whiteSpace=wrap;shape=isoCube2;backgroundOutline=1;isoAngle=15;shadow=0;sketch=0;fillColor=#f5f5f5;strokeColor=#666666;fontColor=#333333;" parent="1" vertex="1">
                    <mxGeometry x="140" y="430" width="120" height="140" as="geometry"/>
                </mxCell>
                <mxCell id="94" value="&lt;font style=&quot;font-size: 48px&quot;&gt;2011&lt;br&gt;&lt;/font&gt;" style="shape=ext;double=1;rounded=0;whiteSpace=wrap;html=1;shadow=0;sketch=0;fillColor=#f5f5f5;strokeColor=#666666;fontColor=#333333;" parent="1" vertex="1">
                    <mxGeometry x="440" y="315" width="400" height="100" as="geometry"/>
                </mxCell>
                <mxCell id="95" value="&lt;font style=&quot;font-size: 24px&quot;&gt;Ember.js&lt;/font&gt;" style="html=1;whiteSpace=wrap;shape=isoCube2;backgroundOutline=1;isoAngle=15;shadow=0;sketch=0;fillColor=#f5f5f5;strokeColor=#666666;fontColor=#333333;" parent="1" vertex="1">
                    <mxGeometry x="440" y="435" width="120" height="140" as="geometry"/>
                </mxCell>
            </root>
        </mxGraphModel>
    </diagram>
</mxfile>